<?xml version="1.0" encoding="utf-8"?>
<!-- Generator: Adobe Illustrator 25.2.3, SVG Export Plug-In . SVG Version: 6.00 Build 0)  -->
<svg version="1.1" id="Layer_1" xmlns="http://www.w3.org/2000/svg" xmlns:xlink="http://www.w3.org/1999/xlink" x="0px" y="0px"
	 viewBox="0 0 13 14" style="enable-background:new 0 0 13 14;" xml:space="preserve">
<style type="text/css">
	.st0{fill-rule:evenodd;clip-rule:evenodd;}
</style>
<path d="M6.5,0.5C10.1,0.5,13,3.4,13,7c0,3.6-2.9,6.5-6.5,6.5C2.9,13.5,0,10.6,0,7S2.9,0.5,6.5,0.5z M6.5,1.8C3.6,1.8,1.3,4.1,1.3,7
	s2.3,5.2,5.2,5.2s5.2-2.3,5.2-5.2S9.7,1.8,6.5,1.8z"/>
<path class="st0" d="M7.3,9.6h0.6v1.1H5.2V9.6h0.6c0.1,0,0.1-0.1,0.1-0.1V7c0-0.1-0.1-0.1-0.1-0.1H5.2V5.8h2v3.6
	C7.1,9.5,7.2,9.6,7.3,9.6z"/>
<path class="st0" d="M6.3,3.4c0.5,0,0.9,0.4,0.9,0.9c0,0.5-0.4,0.9-0.9,0.9c-0.5,0-0.9-0.4-0.9-0.9C5.5,3.8,5.9,3.4,6.3,3.4z"/>
</svg>
